<svg width="53" height="53" viewBox="0 0 53 53" fill="none" xmlns="http://www.w3.org/2000/svg">
<path d="M52.0173 26.4559C52.0173 25.8886 51.5544 25.4283 50.9829 25.4283H28.4232C28.1488 25.4281 27.8857 25.3197 27.6917 25.1271C27.4978 24.9344 27.3888 24.6731 27.3888 24.4007V2.08685H27.3584C27.3662 2.03571 27.3888 1.98998 27.3888 1.93728C27.3888 1.36923 26.9251 0.909668 26.3537 0.909668C26.3287 0.909668 26.3084 0.922067 26.2842 0.923617V0.916642C26.1921 0.915867 26.1008 0.909668 26.0086 0.909668C11.6448 0.909668 0 12.47 0 26.7295C0 40.989 11.6448 52.5493 26.0086 52.5493C40.3724 52.5493 52.0173 40.989 52.0173 26.7295C52.0173 26.6473 52.0134 26.566 52.0118 26.4831C52.0118 26.473 52.0173 26.4652 52.0173 26.4559Z" fill="#FFE600"/>
</svg>
