<svg width="26" height="30" viewBox="0 0 26 30" fill="none" xmlns="http://www.w3.org/2000/svg">
<path d="M22.9551 0H3.04494C2.64405 0.00103542 2.24728 0.0817821 1.8773 0.23763C1.50731 0.393477 1.17136 0.621374 0.888607 0.908307C0.605859 1.19524 0.381858 1.53559 0.229392 1.90993C0.0769258 2.28426 -0.00101815 2.68525 1.00413e-05 3.09V23.37C1.00413e-05 25.08 1.36687 26.46 3.04494 26.46H19.8929L19.1032 23.6826L21.0064 25.4684L22.8034 27.1484L26 30V3.09C26.001 2.68525 25.9231 2.28426 25.7706 1.90993C25.6181 1.53559 25.3941 1.19524 25.1114 0.908307C24.8286 0.621374 24.4927 0.393477 24.1227 0.23763C23.7527 0.0817821 23.356 0.00103542 22.9551 0ZM17.2186 19.59C17.2186 19.59 16.6838 18.9458 16.2396 18.3726C18.1851 17.8168 18.928 16.5884 18.928 16.5884C18.3181 16.9926 17.7394 17.28 17.2186 17.4758C15.3227 18.2769 13.2348 18.4955 11.2164 18.1042C10.4705 17.9563 9.73974 17.7396 9.03315 17.4568C8.66049 17.3139 8.29832 17.1446 7.94936 16.95C7.904 16.9168 7.86021 16.9042 7.81642 16.8742C7.793 16.863 7.77221 16.8468 7.75543 16.8268C7.488 16.6784 7.33943 16.5742 7.33943 16.5742C7.33943 16.5742 8.05258 17.7742 9.94021 18.3442C9.4945 18.9126 8.944 19.59 8.944 19.59C5.66136 19.4842 4.41492 17.31 4.41492 17.31C4.41492 12.48 6.55435 8.56579 6.55435 8.56579C8.69378 6.94421 10.7284 6.99 10.7284 6.99L10.877 7.17C8.20271 7.95158 6.96879 9.13579 6.96879 9.13579C6.96879 9.13579 7.29721 8.95579 7.84614 8.70158C9.43507 7.99737 10.6971 7.80158 11.2179 7.75579C11.3071 7.74158 11.3821 7.72579 11.4713 7.72579C14.0474 7.37529 16.6668 7.86958 18.9436 9.13579C18.9436 9.13579 17.7691 8.01158 15.2434 7.23158L15.4514 6.99158C15.4514 6.99158 17.4876 6.94579 19.6255 8.56737C19.6255 8.56737 21.7649 12.4816 21.7649 17.3116C21.7649 17.31 20.5029 19.4842 17.2186 19.59Z" fill="#C4C4C4"/>
</svg>
