<svg width="28" height="26" viewBox="0 0 28 26" fill="none" xmlns="http://www.w3.org/2000/svg">
<path fill-rule="evenodd" clip-rule="evenodd" d="M14 0C6.265 0 0 5.96465 0 13.3288C0 19.2268 4.0075 24.2085 9.5725 25.9745C10.2725 26.0912 10.535 25.6913 10.535 25.3414C10.535 25.0249 10.5175 23.9752 10.5175 22.8589C7 23.4754 6.09 22.0425 5.81 21.2928C5.6525 20.9096 4.97 19.7267 4.375 19.4101C3.885 19.1602 3.185 18.5437 4.3575 18.5271C5.46 18.5104 6.2475 19.4934 6.51 19.8933C7.77 21.9092 9.7825 21.3428 10.5875 20.9929C10.71 20.1265 11.0775 19.5434 11.48 19.2102C8.365 18.8769 5.11 17.7273 5.11 12.6291C5.11 11.1795 5.6525 9.97995 6.545 9.04694C6.405 8.71372 5.915 7.34751 6.685 5.5148C6.685 5.5148 7.8575 5.16492 10.535 6.881C11.655 6.58111 12.845 6.43116 14.035 6.43116C15.225 6.43116 16.415 6.58111 17.535 6.881C20.2125 5.14826 21.385 5.5148 21.385 5.5148C22.155 7.34751 21.665 8.71372 21.525 9.04694C22.4175 9.97995 22.96 11.1629 22.96 12.6291C22.96 17.744 19.6875 18.8769 16.5725 19.2102C17.08 19.6267 17.5175 20.4264 17.5175 21.676C17.5175 23.4587 17.5 24.8916 17.5 25.3414C17.5 25.6913 17.7625 26.1078 18.4625 25.9745C21.2417 25.0812 23.6567 23.3806 25.3676 21.1121C27.0785 18.8437 27.9992 16.1215 28 13.3288C28 5.96465 21.735 0 14 0Z" fill="#8F959C"/>
</svg>
