<svg width="41" height="43" viewBox="0 0 41 43" fill="none" xmlns="http://www.w3.org/2000/svg">
<path d="M18.9302 1.53444C19.8956 -0.510179 22.6864 -0.510179 23.6518 1.53444L28.2506 11.2627L38.5345 12.8226C40.6934 13.1505 41.5555 15.9221 39.9933 17.5126L32.551 25.0883L34.3082 35.7798C34.6788 38.0261 32.4203 39.7387 30.4876 38.6798L22.7723 34.4439C23.0472 33.4216 23.2072 32.3524 23.2403 31.2466L31.3243 35.6861L29.6431 25.4447C29.5709 25.0054 29.602 24.5543 29.7338 24.1304C29.8656 23.7064 30.0942 23.3223 30.3998 23.0111L37.5262 15.7572L27.6772 14.2624C27.255 14.1983 26.8541 14.028 26.5089 13.7662C26.1638 13.5044 25.8847 13.1589 25.6957 12.7595L21.29 3.44059L16.8863 12.7595C16.6973 13.1589 16.4183 13.5044 16.0731 13.7662C15.7279 14.028 15.327 14.1983 14.9048 14.2624L5.05586 15.7572L7.31429 18.0564C6.28113 18.3418 5.28695 18.7634 4.3557 19.3108L2.58874 17.5126C1.02656 15.9242 1.88859 13.1505 4.04756 12.8226L14.3314 11.2627L18.9302 1.53444Z" fill="#FFE600"/>
<path d="M21 32.501C21 33.8799 20.7284 35.2452 20.2007 36.5192C19.6731 37.7931 18.8996 38.9506 17.9246 39.9256C16.9496 40.9006 15.7921 41.674 14.5182 42.2017C13.2443 42.7294 11.8789 43.001 10.5 43.001C9.12112 43.001 7.75574 42.7294 6.48182 42.2017C5.20791 41.674 4.05039 40.9006 3.07538 39.9256C2.10036 38.9506 1.32694 37.7931 0.799265 36.5192C0.27159 35.2452 -2.05469e-08 33.8799 0 32.501C4.14964e-08 29.7162 1.10625 27.0455 3.07538 25.0764C5.04451 23.1072 7.71523 22.001 10.5 22.001C13.2848 22.001 15.9555 23.1072 17.9246 25.0764C19.8938 27.0455 21 29.7162 21 32.501ZM4.77273 31.5464C4.51957 31.5464 4.27677 31.647 4.09776 31.826C3.91875 32.005 3.81818 32.2478 3.81818 32.501C3.81818 32.7541 3.91875 32.9969 4.09776 33.1759C4.27677 33.355 4.51957 33.4555 4.77273 33.4555H13.923L10.7787 36.5979C10.5995 36.7771 10.4988 37.0202 10.4988 37.2737C10.4988 37.5272 10.5995 37.7703 10.7787 37.9495C10.958 38.1288 11.2011 38.2295 11.4545 38.2295C11.708 38.2295 11.9511 38.1288 12.1304 37.9495L16.9031 33.1768C16.992 33.0881 17.0625 32.9828 17.1106 32.8668C17.1588 32.7509 17.1835 32.6265 17.1835 32.501C17.1835 32.3754 17.1588 32.2511 17.1106 32.1351C17.0625 32.0192 16.992 31.9138 16.9031 31.8252L12.1304 27.0524C11.9511 26.8732 11.708 26.7725 11.4545 26.7725C11.2011 26.7725 10.958 26.8732 10.7787 27.0524C10.5995 27.2317 10.4988 27.4748 10.4988 27.7282C10.4988 27.9817 10.5995 28.2248 10.7787 28.4041L13.923 31.5464H4.77273Z" fill="#FFE600"/>
</svg>
