<svg width="44" height="44" viewBox="0 0 44 44" fill="none" xmlns="http://www.w3.org/2000/svg">
<path d="M37.8797 28.8621V14.5326C37.8791 13.9043 37.7132 13.2873 37.3988 12.7435C37.0845 12.1996 36.6326 11.7479 36.0885 11.4338L23.5501 4.26901C23.0056 3.95459 22.3878 3.78906 21.7589 3.78906C21.1301 3.78906 20.5123 3.95459 19.9678 4.26901L7.42938 11.4338C6.88533 11.7479 6.43344 12.1996 6.11905 12.7435C5.80466 13.2873 5.63883 13.9043 5.63818 14.5326V28.8621C5.63883 29.4904 5.80466 30.1074 6.11905 30.6512C6.43344 31.1951 6.88533 31.6468 7.42938 31.9609L19.9678 39.1257C20.5123 39.4401 21.1301 39.6056 21.7589 39.6056C22.3878 39.6056 23.0056 39.4401 23.5501 39.1257L36.0885 31.9609C36.6326 31.6468 37.0845 31.1951 37.3988 30.6512C37.7132 30.1074 37.8791 29.4904 37.8797 28.8621Z" stroke="#FFE600" stroke-width="2" stroke-linecap="round" stroke-linejoin="round"/>
<path d="M13.6987 7.74414L21.7591 12.4013L29.8195 7.74414" stroke="#FFE600" stroke-width="2" stroke-linecap="round" stroke-linejoin="round"/>
<path d="M13.6986 35.6507V26.3544L5.63818 21.6973" stroke="#FFE600" stroke-width="2" stroke-linecap="round" stroke-linejoin="round"/>
<path d="M37.8797 21.6973L29.8193 26.3544V35.6507" stroke="#FFE600" stroke-width="2" stroke-linecap="round" stroke-linejoin="round"/>
<path d="M6.12207 12.6699L21.7592 21.7155L37.3964 12.6699" stroke="#FFE600" stroke-width="2" stroke-linecap="round" stroke-linejoin="round"/>
<path d="M21.7588 39.7525V21.6973" stroke="#FFE600" stroke-width="2" stroke-linecap="round" stroke-linejoin="round"/>
</svg>
