<svg width="44" height="44" viewBox="0 0 44 44" fill="none" xmlns="http://www.w3.org/2000/svg">
<path d="M9.77216 40.7592C8.44367 40.7592 7.14501 40.3652 6.04041 39.6272C4.9358 38.8891 4.07487 37.84 3.56648 36.6127C3.05809 35.3853 2.92507 34.0347 3.18424 32.7318C3.44342 31.4288 4.08315 30.2319 5.02254 29.2926C5.96193 28.3532 7.15878 27.7134 8.46175 27.4543C9.76471 27.1951 11.1153 27.3281 12.3426 27.8365C13.57 28.3449 14.6191 29.2058 15.3571 30.3104C16.0952 31.415 16.4891 32.7137 16.4891 34.0422C16.487 35.823 15.7787 37.5302 14.5194 38.7895C13.2602 40.0487 11.553 40.757 9.77216 40.7592ZM9.77216 30.012C8.97507 30.012 8.19587 30.2484 7.53311 30.6912C6.87035 31.134 6.35379 31.7635 6.04875 32.4999C5.74372 33.2363 5.66391 34.0467 5.81941 34.8284C5.97492 35.6102 6.35876 36.3283 6.92239 36.892C7.48602 37.4556 8.20413 37.8394 8.98591 37.9949C9.76769 38.1504 10.578 38.0706 11.3145 37.7656C12.0509 37.4606 12.6803 36.944 13.1231 36.2812C13.566 35.6185 13.8024 34.8393 13.8024 34.0422C13.8013 32.9736 13.3763 31.9492 12.6208 31.1936C11.8652 30.438 10.8407 30.0131 9.77216 30.012Z" fill="#FFE600"/>
<path d="M32.6099 35.3855H19.1759V32.6987H32.6099V23.2949H11.1155C10.4031 23.2942 9.72016 23.0109 9.21644 22.5072C8.71272 22.0035 8.42942 21.3205 8.42871 20.6082V11.2044C8.42942 10.492 8.71272 9.80903 9.21644 9.30531C9.72016 8.80159 10.4031 8.51829 11.1155 8.51758H24.5495V11.2044H11.1155V20.6082H32.6099C33.3222 20.6089 34.0052 20.8922 34.5089 21.3959C35.0126 21.8996 35.2959 22.5826 35.2966 23.2949V32.6987C35.2959 33.4111 35.0126 34.0941 34.5089 34.5978C34.0052 35.1015 33.3222 35.3848 32.6099 35.3855Z" fill="#FFE600"/>
<path d="M37.9835 16.5775H29.9231C29.2108 16.5768 28.5278 16.2935 28.0241 15.7898C27.5203 15.2861 27.237 14.6031 27.2363 13.8907V5.83035C27.237 5.11798 27.5203 4.435 28.0241 3.93128C28.5278 3.42757 29.2108 3.14427 29.9231 3.14355H37.9835C38.6959 3.14427 39.3789 3.42757 39.8826 3.93128C40.3863 4.435 40.6696 5.11798 40.6703 5.83035V13.8907C40.6696 14.6031 40.3863 15.2861 39.8826 15.7898C39.3789 16.2935 38.6959 16.5768 37.9835 16.5775ZM29.9231 5.83035V13.8907H37.9835V5.83035H29.9231Z" fill="#FFE600"/>
</svg>
