<svg width="30" height="30" viewBox="0 0 30 30" fill="none" xmlns="http://www.w3.org/2000/svg">
<path d="M0 0V30H30V0H0ZM24.9216 7.10906L23.3147 8.65219C23.2457 8.70277 23.1922 8.77161 23.1603 8.85095C23.1283 8.93029 23.1191 9.01698 23.1337 9.10125V20.4347C23.119 20.5197 23.128 20.6071 23.16 20.6872C23.1919 20.7673 23.2455 20.837 23.3147 20.8884L24.8822 22.4316V22.7681H16.9819V22.4316L18.6075 20.8491C18.7687 20.6878 18.7688 20.6437 18.7688 20.4V11.235L14.2425 22.7288H13.6322L8.36344 11.235V18.9403C8.31937 19.2628 8.42719 19.59 8.65125 19.8244L10.77 22.3931V22.7297H4.76906V22.3931L6.88781 19.8244C7.11281 19.59 7.215 19.2628 7.15594 18.9403V10.0341C7.16967 9.91188 7.15375 9.78818 7.10952 9.67345C7.0653 9.55873 6.99407 9.45635 6.90188 9.375L5.02219 7.10906V6.76687H10.8619L15.3787 16.6744L19.3481 6.76687H24.9197L24.9216 7.10906Z" fill="#C4C4C4"/>
</svg>
