<svg width="104" height="89" viewBox="0 0 104 89" fill="none" xmlns="http://www.w3.org/2000/svg">
<g filter="url(#filter0_d_783_906)">
<path d="M83.5917 35.6965C83.3613 34.9377 82.9509 34.245 82.3948 33.6764C81.9704 33.2219 81.4256 32.8952 80.8228 32.7338C81.1181 33.1972 81.3854 33.7319 81.5849 34.3022C81.8083 34.8845 81.9519 35.5064 81.9958 36.152C82.0631 36.7098 82.0631 37.2736 81.9958 37.8314C81.8713 37.4179 81.68 37.0273 81.4293 36.6748C80.9352 36.0119 80.2749 35.4889 79.5142 35.1578C78.6715 34.7811 77.7182 34.7272 76.838 35.0066C75.9577 35.2859 75.2127 35.8787 74.7464 36.6708C74.5469 36.9956 74.3873 37.3482 74.2676 37.7244C69.5517 29.9295 61.0654 24.7685 51.3622 24.7685C50.8675 24.7685 50.3767 24.7804 49.89 24.8081C46.8796 24.8137 43.8844 25.2308 40.9888 26.0478C40.7414 24.3288 38.4672 20.8433 28.014 20.8433L31.2058 30.785C29.1987 32.3956 27.5115 34.3634 26.2305 36.5877L20.0344 36.6867C20.0344 36.6867 19.3561 52.5301 24.0242 52.5301H26.1787C27.6454 54.9983 29.6078 57.1406 31.9439 58.8239L32.0038 68.3735H36.3127C41.5393 68.3735 43.9731 68.3735 43.9731 65.4029V63.8582C47.9975 64.5985 52.1256 64.5877 56.146 63.8265L55.9425 65.4029C55.9425 68.3735 58.4162 68.3735 63.6827 68.3735H67.9118V58.9071C71.653 56.3321 74.3455 52.5159 75.5044 48.1454C75.7318 48.0385 75.9593 48.0504 76.1907 48.0504C76.4221 48.0504 76.6495 48.0385 76.8769 48.0108C77.8783 47.8286 78.792 47.4404 79.586 46.8899C80.659 46.1362 81.4803 45.0809 81.9439 43.8598C82.0557 43.4914 82.1394 43.1033 82.1953 42.7032L82.1993 42.6636C83.081 41.6259 83.6835 40.3267 83.871 38.8968C84.0341 37.8042 83.9356 36.6889 83.5837 35.641L83.5917 35.6965ZM34.0385 35.6965C34.8322 35.6965 35.5933 36.0094 36.1544 36.5666C36.7156 37.1237 37.0309 37.8793 37.0309 38.6671C37.0309 39.455 36.7156 40.2106 36.1544 40.7677C35.5933 41.3248 34.8322 41.6378 34.0385 41.6378C33.2449 41.6378 32.4838 41.3248 31.9226 40.7677C31.3615 40.2106 31.0462 39.455 31.0462 38.6671C31.0462 37.8793 31.3615 37.1237 31.9226 36.5666C32.4838 36.0094 33.2449 35.6965 34.0385 35.6965ZM43.4943 32.7258C43.0438 32.8693 42.5566 32.8498 42.1191 32.6707C41.6817 32.4916 41.3222 32.1646 41.1045 31.7475C41.0366 31.5397 41.0139 31.3199 41.0379 31.1028C41.0619 30.8856 41.132 30.6759 41.2436 30.4877C41.3552 30.2994 41.5058 30.1367 41.6854 30.0105C41.865 29.8842 42.0695 29.7972 42.2854 29.7552C44.9096 29.1305 47.6028 28.8377 50.3009 28.8838L50.7039 28.8798C53.385 28.8798 55.9864 29.1967 58.48 29.7988C58.9827 29.8938 59.5253 30.5196 59.5253 31.2722C59.5251 31.4323 59.4995 31.5913 59.4495 31.7435C59.3098 32.0003 59.1128 32.222 58.8735 32.3916C58.6343 32.5612 58.3591 32.6741 58.069 32.7219H57.4586C55.2297 32.189 52.9446 31.9231 50.652 31.9297H50.2969C47.8831 31.9297 45.5371 32.2188 43.2909 32.7654L43.4943 32.7258ZM78.2055 44.3311C77.6672 44.7199 77.0507 44.9887 76.3981 45.1193L75.8914 45.1233V44.6084V43.3805C76.5497 43.8756 77.3836 44.1727 78.2853 44.1727H78.3691L78.2055 44.3311ZM78.5247 41.6378C78.1538 41.6894 77.776 41.6219 77.4466 41.4451C77.1171 41.2684 76.8532 40.9917 76.6934 40.6555C76.5105 40.3096 76.4154 39.9247 76.4161 39.534C76.4167 39.1434 76.5133 38.7589 76.6974 38.4136C76.887 38.153 77.1664 37.9703 77.4825 37.9003C77.7986 37.8302 78.1296 37.8776 78.413 38.0334C78.7745 38.1711 79.0855 38.4145 79.3049 38.7312C79.5242 39.048 79.6417 39.4234 79.6418 39.8078V39.8118C79.7207 40.361 79.7193 40.9186 79.6378 41.4674C79.2673 41.5383 78.8899 41.5675 78.5127 41.5546L78.5247 41.6378Z" fill="#FFE600"/>
</g>
<defs>
<filter id="filter0_d_783_906" x="0" y="0.843262" width="103.948" height="87.5303" filterUnits="userSpaceOnUse" color-interpolation-filters="sRGB">
<feFlood flood-opacity="0" result="BackgroundImageFix"/>
<feColorMatrix in="SourceAlpha" type="matrix" values="0 0 0 0 0 0 0 0 0 0 0 0 0 0 0 0 0 0 127 0" result="hardAlpha"/>
<feOffset/>
<feGaussianBlur stdDeviation="10"/>
<feComposite in2="hardAlpha" operator="out"/>
<feColorMatrix type="matrix" values="0 0 0 0 1 0 0 0 0 0.9 0 0 0 0 0 0 0 0 1 0"/>
<feBlend mode="normal" in2="BackgroundImageFix" result="effect1_dropShadow_783_906"/>
<feBlend mode="normal" in="SourceGraphic" in2="effect1_dropShadow_783_906" result="shape"/>
</filter>
</defs>
</svg>
