<svg width="98" height="108" viewBox="0 0 98 108" fill="none" xmlns="http://www.w3.org/2000/svg">
<g filter="url(#filter0_d_783_899)">
<path d="M76.0139 32.04C71.3559 30.8058 66.8053 29.2021 62.4061 27.2444C58.078 25.3805 53.8999 23.1906 49.9083 20.6938L48.7778 20L47.6678 20.7142C43.6762 23.211 39.4981 25.4009 35.17 27.2648C30.7635 29.2166 26.206 30.8135 21.5417 32.04L20 32.4277V49.4469C20 76.7716 47.8117 86.9954 48.0789 87.0974L48.7778 87.3423L49.4767 87.0974C49.7644 87.0974 77.5555 76.792 77.5555 49.4469V32.4277L76.0139 32.04ZM66.62 45.6105L43.6594 67.7518L30.6683 54.8343C30.1232 54.2931 29.8169 53.5591 29.8169 52.7937C29.8169 52.0283 30.1232 51.2942 30.6683 50.753C31.2135 50.2118 31.9529 49.9077 32.7239 49.9077C33.4949 49.9077 34.2343 50.2118 34.7794 50.753L43.7211 59.7932L62.6117 41.4271C62.8816 41.1591 63.2021 40.9465 63.5548 40.8015C63.9074 40.6565 64.2855 40.5818 64.6672 40.5818C65.049 40.5818 65.427 40.6565 65.7797 40.8015C66.1324 40.9465 66.4528 41.1591 66.7228 41.4271C66.9927 41.6951 67.2068 42.0132 67.3529 42.3634C67.499 42.7135 67.5742 43.0888 67.5742 43.4678C67.5742 43.8468 67.499 44.222 67.3529 44.5722C67.2068 44.9223 66.9927 45.2405 66.7228 45.5084L66.62 45.6105Z" fill="#FFE600"/>
</g>
<defs>
<filter id="filter0_d_783_899" x="0" y="0" width="97.5555" height="107.342" filterUnits="userSpaceOnUse" color-interpolation-filters="sRGB">
<feFlood flood-opacity="0" result="BackgroundImageFix"/>
<feColorMatrix in="SourceAlpha" type="matrix" values="0 0 0 0 0 0 0 0 0 0 0 0 0 0 0 0 0 0 127 0" result="hardAlpha"/>
<feOffset/>
<feGaussianBlur stdDeviation="10"/>
<feComposite in2="hardAlpha" operator="out"/>
<feColorMatrix type="matrix" values="0 0 0 0 1 0 0 0 0 0.9 0 0 0 0 0 0 0 0 1 0"/>
<feBlend mode="normal" in2="BackgroundImageFix" result="effect1_dropShadow_783_899"/>
<feBlend mode="normal" in="SourceGraphic" in2="effect1_dropShadow_783_899" result="shape"/>
</filter>
</defs>
</svg>
