<svg width="30" height="23" viewBox="0 0 30 23" fill="none" xmlns="http://www.w3.org/2000/svg">
<path d="M30 2.72822C28.8968 3.18925 27.7116 3.50076 26.4657 3.64157C27.7513 2.91611 28.713 1.77434 29.1716 0.429283C27.9638 1.10587 26.6419 1.58211 25.2634 1.8373C24.3364 0.903854 23.1085 0.285149 21.7704 0.0772448C20.4324 -0.130659 19.059 0.0838706 17.8634 0.687527C16.6679 1.29118 15.7171 2.25019 15.1588 3.41566C14.6004 4.58113 14.4656 5.88786 14.7754 7.13296C12.328 7.01707 9.93389 6.41717 7.74829 5.37219C5.5627 4.32721 3.63451 2.8605 2.08888 1.06725C1.56038 1.92702 1.2565 2.92385 1.2565 3.98547C1.25591 4.94118 1.50546 5.88224 1.98302 6.72517C2.46057 7.5681 3.15136 8.28684 3.9941 8.8176C3.01675 8.78827 2.06096 8.53922 1.20629 8.09116V8.16592C1.20619 9.50634 1.69783 10.8055 2.59779 11.843C3.49775 12.8804 4.7506 13.5923 6.14375 13.8578C5.2371 14.0892 4.28654 14.1233 3.36387 13.9575C3.75693 15.1109 4.52259 16.1194 5.55364 16.842C6.5847 17.5646 7.82954 17.965 9.11389 17.9872C6.93363 19.6013 4.24102 20.4769 1.46922 20.473C0.978219 20.4732 0.487637 20.4461 0 20.392C2.81354 22.0981 6.08871 23.0035 9.43363 23C20.7566 23 26.9466 14.1556 26.9466 6.48502C26.9466 6.23581 26.94 5.98411 26.9281 5.73491C28.1322 4.91374 29.1715 3.89687 29.9974 2.73196L30 2.72822Z" fill="#C4C4C4"/>
</svg>
